<svg width="188" height="119" viewBox="0 0 188 119" fill="none" xmlns="http://www.w3.org/2000/svg">
<path d="M60.0129 115.799C51.5818 101.099 43.2282 86.5399 34.8877 71.9717C32.8235 68.3663 33.05 68.7779 29.7229 70.6867C24.4606 73.7057 23.0291 77.9793 23.3548 84.2587C23.881 94.4025 23.4382 104.603 23.5347 114.777C23.5557 116.989 22.931 117.678 20.9087 117.639C14.812 117.524 8.71141 117.544 2.61391 117.636C0.742012 117.664 -0.00255259 117.053 6.57261e-06 114.916C0.044739 77.5562 0.0461198 40.1959 0.0111084 2.83575C0.00924261 0.845556 0.441839 -0.0128345 2.47612 0.0303758C8.63942 0.161299 14.8084 0.166876 20.9713 0.0266219C23.0875 -0.0215272 23.5412 0.826373 23.5313 2.94053C23.4601 18.1314 23.4899 33.3228 23.4877 48.514C23.4876 49.5082 23.4877 50.5024 23.4877 51.4816C24.6471 51.6679 24.8721 50.8303 25.2136 50.2982C36.0603 33.3995 48.5002 17.846 60.1207 1.60131C60.8882 0.528387 61.7156 0.0394544 62.9929 0.0487329C70.2976 0.101887 77.6081 -0.125666 84.9068 0.106786C118.061 1.16263 151.22 0.283462 184.375 0.574353C187.496 0.601735 187.509 0.600377 187.509 3.9738C187.512 12.696 187.495 21.4185 187.571 30.14C187.586 31.9236 187.126 32.8785 185.451 33.4312C171.881 37.9085 158.336 42.474 144.785 47.021C134.306 50.5376 123.829 54.0646 113.354 57.5951C112.852 57.7642 112.306 57.9146 112.083 58.722C112.908 60.2477 114.588 60.1367 115.874 60.6019C130.275 65.8122 144.71 70.9146 159.14 76.0338C167.848 79.1233 176.556 82.2137 185.281 85.2479C186.807 85.7787 187.595 86.5261 187.576 88.4586C187.487 97.3979 187.541 106.339 187.53 115.279C187.527 118.112 187.478 118.153 184.791 118.154C152.421 118.165 120.049 118.414 87.6833 118.019C79.3419 117.917 70.9803 117.9 62.6316 117.631C61.393 117.591 60.5953 117.11 60.0129 115.799ZM85.9951 13.5164C85.8387 10.1271 86.323 6.69206 85.6773 3.21643C84.5507 3.65169 84.1753 4.46799 83.6874 5.132C80.8062 9.05359 77.9434 12.9911 75.0809 16.9288C67.0326 27.9999 58.9874 39.0736 50.9415 50.1467C50.1998 51.1675 49.415 52.0152 50.323 53.5655C61.7486 73.0731 73.1161 92.6207 84.5001 112.157C84.7438 112.575 84.9224 113.094 85.5785 113.056C86.1492 112.427 85.9758 111.592 85.9788 110.823C85.9945 106.825 86.0911 102.822 85.948 98.8301C85.8693 96.6328 86.5112 95.9676 88.5569 95.9785C103.972 96.0606 119.389 95.9291 134.804 96.0516C144.353 96.1274 153.899 96.5309 163.471 96.788C163.314 96.1963 162.834 96.2006 162.488 96.0757C154.93 93.3465 147.368 90.6314 139.801 87.9294C123.077 81.957 106.348 76.0002 89.6256 70.0199C86.3934 68.8639 86.0073 68.2384 85.9959 64.4928C85.9831 60.2766 85.9913 56.0603 85.9897 51.8441C85.988 47.11 85.9756 47.0675 90.0805 45.6986C111.768 38.466 133.464 31.2592 155.154 24.0359C157.825 23.1465 160.482 22.2116 163.146 21.2978C162.367 20.8258 161.703 20.8023 161.04 20.8294C151.335 21.2261 141.632 21.8313 131.923 21.9826C118.453 22.1925 104.979 22.0654 91.507 22.0743C90.2342 22.0751 88.9611 22.0239 87.6886 21.9835C86.547 21.9473 85.9931 21.3223 86.0051 20.0582C86.0245 18.0231 86.0004 15.9876 85.9951 13.5164Z" fill="white"/>
</svg>
